<svg xmlns="http://www.w3.org/2000/svg" viewBox="0 0 850 240" width="100%" height="100%">
  <defs>
    <linearGradient id="areaGradient" x1="0%" y1="0%" x2="0%" y2="100%">
      <stop offset="0%" stop-color="#58a6ff" stop-opacity="0.35" />
      <stop offset="100%" stop-color="#58a6ff" stop-opacity="0.0" />
    </linearGradient>
    <linearGradient id="lineGradient" x1="0%" y1="0%" x2="100%" y2="0%">
      <stop offset="0%" stop-color="#388bfd" />
      <stop offset="100%" stop-color="#58a6ff" />
    </linearGradient>
  </defs>

  <!-- Background Card -->
  <rect width="850" height="240" rx="8" fill="#0d1117" stroke="#30363d" stroke-width="1" />

  <!-- Header -->
  <text x="24" y="32" fill="#c9d1d9" font-size="14" font-weight="600" font-family="-apple-system, BlinkMacSystemFont, 'Segoe UI', Helvetica, Arial, sans-serif">Contribution &amp; Activity History (Last 60 Days)</text>
  <text x="826" y="32" fill="#58a6ff" font-size="13" font-weight="600" text-anchor="end" font-family="-apple-system, BlinkMacSystemFont, 'Segoe UI', Helvetica, Arial, sans-serif">735 Total Contributions</text>

  <!-- Grid -->
  
      <line x1="50" y1="200" x2="820" y2="200" stroke="#30363d" stroke-dasharray="3,3" stroke-width="1" />
      <text x="40" y="204" fill="#8b949e" font-size="11" text-anchor="end" font-family="-apple-system, BlinkMacSystemFont, 'Segoe UI', Helvetica, Arial, sans-serif">0</text>
    

      <line x1="50" y1="162.5" x2="820" y2="162.5" stroke="#30363d" stroke-dasharray="3,3" stroke-width="1" />
      <text x="40" y="166.5" fill="#8b949e" font-size="11" text-anchor="end" font-family="-apple-system, BlinkMacSystemFont, 'Segoe UI', Helvetica, Arial, sans-serif">9</text>
    

      <line x1="50" y1="125" x2="820" y2="125" stroke="#30363d" stroke-dasharray="3,3" stroke-width="1" />
      <text x="40" y="129" fill="#8b949e" font-size="11" text-anchor="end" font-family="-apple-system, BlinkMacSystemFont, 'Segoe UI', Helvetica, Arial, sans-serif">18</text>
    

      <line x1="50" y1="87.5" x2="820" y2="87.5" stroke="#30363d" stroke-dasharray="3,3" stroke-width="1" />
      <text x="40" y="91.5" fill="#8b949e" font-size="11" text-anchor="end" font-family="-apple-system, BlinkMacSystemFont, 'Segoe UI', Helvetica, Arial, sans-serif">26</text>
    

      <line x1="50" y1="50" x2="820" y2="50" stroke="#30363d" stroke-dasharray="3,3" stroke-width="1" />
      <text x="40" y="54" fill="#8b949e" font-size="11" text-anchor="end" font-family="-apple-system, BlinkMacSystemFont, 'Segoe UI', Helvetica, Arial, sans-serif">35</text>
    

  <!-- Area Fill -->
  <path d="M 50 191.42857142857142 C 56.525423728813564 191.42857142857142, 56.525423728813564 200, 63.05084745762712 200 C 69.57627118644068 200, 69.57627118644068 182.85714285714286, 76.10169491525424 182.85714285714286 C 82.62711864406779 182.85714285714286, 82.62711864406779 187.14285714285714, 89.15254237288136 187.14285714285714 C 95.67796610169492 187.14285714285714, 95.67796610169492 200, 102.20338983050848 200 C 108.72881355932203 200, 108.72881355932203 165.71428571428572, 115.25423728813558 165.71428571428572 C 121.77966101694915 165.71428571428572, 121.77966101694915 174.28571428571428, 128.3050847457627 174.28571428571428 C 134.83050847457628 174.28571428571428, 134.83050847457628 127.14285714285714, 141.35593220338984 127.14285714285714 C 147.8813559322034 127.14285714285714, 147.8813559322034 170, 154.40677966101697 170 C 160.93220338983053 170, 160.93220338983053 200, 167.45762711864407 200 C 173.9830508474576 200, 173.9830508474576 161.42857142857144, 180.50847457627117 161.42857142857144 C 187.03389830508473 161.42857142857144, 187.03389830508473 191.42857142857142, 193.5593220338983 191.42857142857142 C 200.08474576271186 191.42857142857142, 200.08474576271186 191.42857142857142, 206.61016949152543 191.42857142857142 C 213.135593220339 191.42857142857142, 213.135593220339 200, 219.66101694915253 200 C 226.1864406779661 200, 226.1864406779661 200, 232.71186440677965 200 C 239.23728813559322 200, 239.23728813559322 200, 245.76271186440678 200 C 252.28813559322037 200, 252.28813559322037 195.71428571428572, 258.81355932203394 195.71428571428572 C 265.33898305084745 195.71428571428572, 265.33898305084745 187.14285714285714, 271.864406779661 187.14285714285714 C 278.3898305084746 187.14285714285714, 278.3898305084746 191.42857142857142, 284.91525423728814 191.42857142857142 C 291.4406779661017 191.42857142857142, 291.4406779661017 182.85714285714286, 297.9661016949152 182.85714285714286 C 304.4915254237288 182.85714285714286, 304.4915254237288 195.71428571428572, 311.01694915254234 195.71428571428572 C 317.5423728813559 195.71428571428572, 317.5423728813559 200, 324.06779661016947 200 C 330.59322033898303 200, 330.59322033898303 200, 337.1186440677966 200 C 343.64406779661016 200, 343.64406779661016 200, 350.1694915254237 200 C 356.6949152542373 200, 356.6949152542373 182.85714285714286, 363.22033898305085 182.85714285714286 C 369.7457627118644 182.85714285714286, 369.7457627118644 50, 376.271186440678 50 C 382.7966101694915 50, 382.7966101694915 140, 389.32203389830505 140 C 395.8474576271186 140, 395.8474576271186 174.28571428571428, 402.3728813559322 174.28571428571428 C 408.89830508474574 174.28571428571428, 408.89830508474574 191.42857142857142, 415.4237288135593 191.42857142857142 C 421.9491525423729 191.42857142857142, 421.9491525423729 200, 428.47457627118644 200 C 435 200, 435 200, 441.52542372881356 200 C 448.0508474576271 200, 448.0508474576271 191.42857142857142, 454.5762711864407 191.42857142857142 C 461.10169491525426 191.42857142857142, 461.10169491525426 135.71428571428572, 467.6271186440678 135.71428571428572 C 474.1525423728814 135.71428571428572, 474.1525423728814 97.14285714285714, 480.6779661016949 97.14285714285714 C 487.20338983050846 97.14285714285714, 487.20338983050846 170, 493.728813559322 170 C 500.2542372881356 170, 500.2542372881356 187.14285714285714, 506.77966101694915 187.14285714285714 C 513.3050847457628 187.14285714285714, 513.3050847457628 200, 519.8305084745763 200 C 526.3559322033898 200, 526.3559322033898 200, 532.8813559322034 200 C 539.4067796610169 200, 539.4067796610169 62.85714285714286, 545.9322033898304 62.85714285714286 C 552.457627118644 62.85714285714286, 552.457627118644 161.42857142857144, 558.9830508474577 161.42857142857144 C 565.5084745762712 161.42857142857144, 565.5084745762712 191.42857142857142, 572.0338983050847 191.42857142857142 C 578.5593220338983 191.42857142857142, 578.5593220338983 200, 585.0847457627119 200 C 591.6101694915254 200, 591.6101694915254 157.14285714285714, 598.1355932203389 157.14285714285714 C 604.6610169491526 157.14285714285714, 604.6610169491526 200, 611.1864406779661 200 C 617.7118644067796 200, 617.7118644067796 135.71428571428572, 624.2372881355932 135.71428571428572 C 630.7627118644068 135.71428571428572, 630.7627118644068 200, 637.2881355932203 200 C 643.8135593220338 200, 643.8135593220338 174.28571428571428, 650.3389830508474 174.28571428571428 C 656.8644067796611 174.28571428571428, 656.8644067796611 110, 663.3898305084746 110 C 669.9152542372881 110, 669.9152542372881 182.85714285714286, 676.4406779661017 182.85714285714286 C 682.9661016949153 182.85714285714286, 682.9661016949153 200, 689.4915254237288 200 C 696.0169491525423 200, 696.0169491525423 165.71428571428572, 702.542372881356 165.71428571428572 C 709.0677966101696 165.71428571428572, 709.0677966101696 200, 715.5932203389831 200 C 722.1186440677966 200, 722.1186440677966 200, 728.6440677966101 200 C 735.1694915254237 200, 735.1694915254237 191.42857142857142, 741.6949152542373 191.42857142857142 C 748.2203389830509 191.42857142857142, 748.2203389830509 200, 754.7457627118644 200 C 761.2711864406779 200, 761.2711864406779 200, 767.7966101694915 200 C 774.3220338983051 200, 774.3220338983051 88.57142857142857, 780.8474576271186 88.57142857142857 C 787.3728813559321 88.57142857142857, 787.3728813559321 170, 793.8983050847457 170 C 800.4237288135594 170, 800.4237288135594 174.28571428571428, 806.9491525423729 174.28571428571428 C 813.4745762711864 174.28571428571428, 813.4745762711864 200, 820 200 L 820 200 L 50 200 Z" fill="url(#areaGradient)" />

  <!-- Smooth Line -->
  <path d="M 50 191.42857142857142 C 56.525423728813564 191.42857142857142, 56.525423728813564 200, 63.05084745762712 200 C 69.57627118644068 200, 69.57627118644068 182.85714285714286, 76.10169491525424 182.85714285714286 C 82.62711864406779 182.85714285714286, 82.62711864406779 187.14285714285714, 89.15254237288136 187.14285714285714 C 95.67796610169492 187.14285714285714, 95.67796610169492 200, 102.20338983050848 200 C 108.72881355932203 200, 108.72881355932203 165.71428571428572, 115.25423728813558 165.71428571428572 C 121.77966101694915 165.71428571428572, 121.77966101694915 174.28571428571428, 128.3050847457627 174.28571428571428 C 134.83050847457628 174.28571428571428, 134.83050847457628 127.14285714285714, 141.35593220338984 127.14285714285714 C 147.8813559322034 127.14285714285714, 147.8813559322034 170, 154.40677966101697 170 C 160.93220338983053 170, 160.93220338983053 200, 167.45762711864407 200 C 173.9830508474576 200, 173.9830508474576 161.42857142857144, 180.50847457627117 161.42857142857144 C 187.03389830508473 161.42857142857144, 187.03389830508473 191.42857142857142, 193.5593220338983 191.42857142857142 C 200.08474576271186 191.42857142857142, 200.08474576271186 191.42857142857142, 206.61016949152543 191.42857142857142 C 213.135593220339 191.42857142857142, 213.135593220339 200, 219.66101694915253 200 C 226.1864406779661 200, 226.1864406779661 200, 232.71186440677965 200 C 239.23728813559322 200, 239.23728813559322 200, 245.76271186440678 200 C 252.28813559322037 200, 252.28813559322037 195.71428571428572, 258.81355932203394 195.71428571428572 C 265.33898305084745 195.71428571428572, 265.33898305084745 187.14285714285714, 271.864406779661 187.14285714285714 C 278.3898305084746 187.14285714285714, 278.3898305084746 191.42857142857142, 284.91525423728814 191.42857142857142 C 291.4406779661017 191.42857142857142, 291.4406779661017 182.85714285714286, 297.9661016949152 182.85714285714286 C 304.4915254237288 182.85714285714286, 304.4915254237288 195.71428571428572, 311.01694915254234 195.71428571428572 C 317.5423728813559 195.71428571428572, 317.5423728813559 200, 324.06779661016947 200 C 330.59322033898303 200, 330.59322033898303 200, 337.1186440677966 200 C 343.64406779661016 200, 343.64406779661016 200, 350.1694915254237 200 C 356.6949152542373 200, 356.6949152542373 182.85714285714286, 363.22033898305085 182.85714285714286 C 369.7457627118644 182.85714285714286, 369.7457627118644 50, 376.271186440678 50 C 382.7966101694915 50, 382.7966101694915 140, 389.32203389830505 140 C 395.8474576271186 140, 395.8474576271186 174.28571428571428, 402.3728813559322 174.28571428571428 C 408.89830508474574 174.28571428571428, 408.89830508474574 191.42857142857142, 415.4237288135593 191.42857142857142 C 421.9491525423729 191.42857142857142, 421.9491525423729 200, 428.47457627118644 200 C 435 200, 435 200, 441.52542372881356 200 C 448.0508474576271 200, 448.0508474576271 191.42857142857142, 454.5762711864407 191.42857142857142 C 461.10169491525426 191.42857142857142, 461.10169491525426 135.71428571428572, 467.6271186440678 135.71428571428572 C 474.1525423728814 135.71428571428572, 474.1525423728814 97.14285714285714, 480.6779661016949 97.14285714285714 C 487.20338983050846 97.14285714285714, 487.20338983050846 170, 493.728813559322 170 C 500.2542372881356 170, 500.2542372881356 187.14285714285714, 506.77966101694915 187.14285714285714 C 513.3050847457628 187.14285714285714, 513.3050847457628 200, 519.8305084745763 200 C 526.3559322033898 200, 526.3559322033898 200, 532.8813559322034 200 C 539.4067796610169 200, 539.4067796610169 62.85714285714286, 545.9322033898304 62.85714285714286 C 552.457627118644 62.85714285714286, 552.457627118644 161.42857142857144, 558.9830508474577 161.42857142857144 C 565.5084745762712 161.42857142857144, 565.5084745762712 191.42857142857142, 572.0338983050847 191.42857142857142 C 578.5593220338983 191.42857142857142, 578.5593220338983 200, 585.0847457627119 200 C 591.6101694915254 200, 591.6101694915254 157.14285714285714, 598.1355932203389 157.14285714285714 C 604.6610169491526 157.14285714285714, 604.6610169491526 200, 611.1864406779661 200 C 617.7118644067796 200, 617.7118644067796 135.71428571428572, 624.2372881355932 135.71428571428572 C 630.7627118644068 135.71428571428572, 630.7627118644068 200, 637.2881355932203 200 C 643.8135593220338 200, 643.8135593220338 174.28571428571428, 650.3389830508474 174.28571428571428 C 656.8644067796611 174.28571428571428, 656.8644067796611 110, 663.3898305084746 110 C 669.9152542372881 110, 669.9152542372881 182.85714285714286, 676.4406779661017 182.85714285714286 C 682.9661016949153 182.85714285714286, 682.9661016949153 200, 689.4915254237288 200 C 696.0169491525423 200, 696.0169491525423 165.71428571428572, 702.542372881356 165.71428571428572 C 709.0677966101696 165.71428571428572, 709.0677966101696 200, 715.5932203389831 200 C 722.1186440677966 200, 722.1186440677966 200, 728.6440677966101 200 C 735.1694915254237 200, 735.1694915254237 191.42857142857142, 741.6949152542373 191.42857142857142 C 748.2203389830509 191.42857142857142, 748.2203389830509 200, 754.7457627118644 200 C 761.2711864406779 200, 761.2711864406779 200, 767.7966101694915 200 C 774.3220338983051 200, 774.3220338983051 88.57142857142857, 780.8474576271186 88.57142857142857 C 787.3728813559321 88.57142857142857, 787.3728813559321 170, 793.8983050847457 170 C 800.4237288135594 170, 800.4237288135594 174.28571428571428, 806.9491525423729 174.28571428571428 C 813.4745762711864 174.28571428571428, 813.4745762711864 200, 820 200" fill="none" stroke="url(#lineGradient)" stroke-width="2.5" stroke-linecap="round" />

  <!-- Contribution Points -->
  
        <circle cx="50" cy="191.42857142857142" r="3" fill="#58a6ff" stroke="#0d1117" stroke-width="1.5" />
      

        <circle cx="76.10169491525424" cy="182.85714285714286" r="3" fill="#58a6ff" stroke="#0d1117" stroke-width="1.5" />
      

        <circle cx="89.15254237288136" cy="187.14285714285714" r="3" fill="#58a6ff" stroke="#0d1117" stroke-width="1.5" />
      

        <circle cx="115.25423728813558" cy="165.71428571428572" r="3" fill="#58a6ff" stroke="#0d1117" stroke-width="1.5" />
      

        <circle cx="128.3050847457627" cy="174.28571428571428" r="3" fill="#58a6ff" stroke="#0d1117" stroke-width="1.5" />
      

        <circle cx="141.35593220338984" cy="127.14285714285714" r="3" fill="#58a6ff" stroke="#0d1117" stroke-width="1.5" />
      

        <circle cx="154.40677966101697" cy="170" r="3" fill="#58a6ff" stroke="#0d1117" stroke-width="1.5" />
      

        <circle cx="180.50847457627117" cy="161.42857142857144" r="3" fill="#58a6ff" stroke="#0d1117" stroke-width="1.5" />
      

        <circle cx="193.5593220338983" cy="191.42857142857142" r="3" fill="#58a6ff" stroke="#0d1117" stroke-width="1.5" />
      

        <circle cx="206.61016949152543" cy="191.42857142857142" r="3" fill="#58a6ff" stroke="#0d1117" stroke-width="1.5" />
      

        <circle cx="258.81355932203394" cy="195.71428571428572" r="3" fill="#58a6ff" stroke="#0d1117" stroke-width="1.5" />
      

        <circle cx="271.864406779661" cy="187.14285714285714" r="3" fill="#58a6ff" stroke="#0d1117" stroke-width="1.5" />
      

        <circle cx="284.91525423728814" cy="191.42857142857142" r="3" fill="#58a6ff" stroke="#0d1117" stroke-width="1.5" />
      

        <circle cx="297.9661016949152" cy="182.85714285714286" r="3" fill="#58a6ff" stroke="#0d1117" stroke-width="1.5" />
      

        <circle cx="311.01694915254234" cy="195.71428571428572" r="3" fill="#58a6ff" stroke="#0d1117" stroke-width="1.5" />
      

        <circle cx="363.22033898305085" cy="182.85714285714286" r="3" fill="#58a6ff" stroke="#0d1117" stroke-width="1.5" />
      

        <circle cx="376.271186440678" cy="50" r="3" fill="#58a6ff" stroke="#0d1117" stroke-width="1.5" />
      

        <circle cx="389.32203389830505" cy="140" r="3" fill="#58a6ff" stroke="#0d1117" stroke-width="1.5" />
      

        <circle cx="402.3728813559322" cy="174.28571428571428" r="3" fill="#58a6ff" stroke="#0d1117" stroke-width="1.5" />
      

        <circle cx="415.4237288135593" cy="191.42857142857142" r="3" fill="#58a6ff" stroke="#0d1117" stroke-width="1.5" />
      

        <circle cx="454.5762711864407" cy="191.42857142857142" r="3" fill="#58a6ff" stroke="#0d1117" stroke-width="1.5" />
      

        <circle cx="467.6271186440678" cy="135.71428571428572" r="3" fill="#58a6ff" stroke="#0d1117" stroke-width="1.5" />
      

        <circle cx="480.6779661016949" cy="97.14285714285714" r="3" fill="#58a6ff" stroke="#0d1117" stroke-width="1.5" />
      

        <circle cx="493.728813559322" cy="170" r="3" fill="#58a6ff" stroke="#0d1117" stroke-width="1.5" />
      

        <circle cx="506.77966101694915" cy="187.14285714285714" r="3" fill="#58a6ff" stroke="#0d1117" stroke-width="1.5" />
      

        <circle cx="545.9322033898304" cy="62.85714285714286" r="3" fill="#58a6ff" stroke="#0d1117" stroke-width="1.5" />
      

        <circle cx="558.9830508474577" cy="161.42857142857144" r="3" fill="#58a6ff" stroke="#0d1117" stroke-width="1.5" />
      

        <circle cx="572.0338983050847" cy="191.42857142857142" r="3" fill="#58a6ff" stroke="#0d1117" stroke-width="1.5" />
      

        <circle cx="598.1355932203389" cy="157.14285714285714" r="3" fill="#58a6ff" stroke="#0d1117" stroke-width="1.5" />
      

        <circle cx="624.2372881355932" cy="135.71428571428572" r="3" fill="#58a6ff" stroke="#0d1117" stroke-width="1.5" />
      

        <circle cx="650.3389830508474" cy="174.28571428571428" r="3" fill="#58a6ff" stroke="#0d1117" stroke-width="1.5" />
      

        <circle cx="663.3898305084746" cy="110" r="3" fill="#58a6ff" stroke="#0d1117" stroke-width="1.5" />
      

        <circle cx="676.4406779661017" cy="182.85714285714286" r="3" fill="#58a6ff" stroke="#0d1117" stroke-width="1.5" />
      

        <circle cx="702.542372881356" cy="165.71428571428572" r="3" fill="#58a6ff" stroke="#0d1117" stroke-width="1.5" />
      

        <circle cx="741.6949152542373" cy="191.42857142857142" r="3" fill="#58a6ff" stroke="#0d1117" stroke-width="1.5" />
      

        <circle cx="780.8474576271186" cy="88.57142857142857" r="3" fill="#58a6ff" stroke="#0d1117" stroke-width="1.5" />
      

        <circle cx="793.8983050847457" cy="170" r="3" fill="#58a6ff" stroke="#0d1117" stroke-width="1.5" />
      

        <circle cx="806.9491525423729" cy="174.28571428571428" r="3" fill="#58a6ff" stroke="#0d1117" stroke-width="1.5" />
      

  <!-- Dates -->
  <text x="50" y="225" fill="#8b949e" font-size="11" text-anchor="middle" font-family="-apple-system, BlinkMacSystemFont, 'Segoe UI', Helvetica, Arial, sans-serif">Jul 26</text>
<text x="245.76271186440678" y="225" fill="#8b949e" font-size="11" text-anchor="middle" font-family="-apple-system, BlinkMacSystemFont, 'Segoe UI', Helvetica, Arial, sans-serif">Aug 10</text>
<text x="441.52542372881356" y="225" fill="#8b949e" font-size="11" text-anchor="middle" font-family="-apple-system, BlinkMacSystemFont, 'Segoe UI', Helvetica, Arial, sans-serif">Aug 25</text>
<text x="637.2881355932203" y="225" fill="#8b949e" font-size="11" text-anchor="middle" font-family="-apple-system, BlinkMacSystemFont, 'Segoe UI', Helvetica, Arial, sans-serif">Sep 9</text>
<text x="820" y="225" fill="#8b949e" font-size="11" text-anchor="middle" font-family="-apple-system, BlinkMacSystemFont, 'Segoe UI', Helvetica, Arial, sans-serif">Sep 23</text>
</svg>