<svg xmlns="http://www.w3.org/2000/svg" viewBox="0 0 850 240" width="100%" height="100%">
  <defs>
    <linearGradient id="areaGradient" x1="0%" y1="0%" x2="0%" y2="100%">
      <stop offset="0%" stop-color="#58a6ff" stop-opacity="0.35" />
      <stop offset="100%" stop-color="#58a6ff" stop-opacity="0.0" />
    </linearGradient>
    <linearGradient id="lineGradient" x1="0%" y1="0%" x2="100%" y2="0%">
      <stop offset="0%" stop-color="#388bfd" />
      <stop offset="100%" stop-color="#58a6ff" />
    </linearGradient>
  </defs>

  <!-- Background Card -->
  <rect width="850" height="240" rx="8" fill="#0d1117" stroke="#30363d" stroke-width="1" />

  <!-- Header -->
  <text x="24" y="32" fill="#c9d1d9" font-size="14" font-weight="600" font-family="-apple-system, BlinkMacSystemFont, 'Segoe UI', Helvetica, Arial, sans-serif">Contribution &amp; Activity History (Last 60 Days)</text>
  <text x="826" y="32" fill="#58a6ff" font-size="13" font-weight="600" text-anchor="end" font-family="-apple-system, BlinkMacSystemFont, 'Segoe UI', Helvetica, Arial, sans-serif">735 Total Contributions</text>

  <!-- Grid -->
  
      <line x1="50" y1="200" x2="820" y2="200" stroke="#30363d" stroke-dasharray="3,3" stroke-width="1" />
      <text x="40" y="204" fill="#8b949e" font-size="11" text-anchor="end" font-family="-apple-system, BlinkMacSystemFont, 'Segoe UI', Helvetica, Arial, sans-serif">0</text>
    

      <line x1="50" y1="162.5" x2="820" y2="162.5" stroke="#30363d" stroke-dasharray="3,3" stroke-width="1" />
      <text x="40" y="166.5" fill="#8b949e" font-size="11" text-anchor="end" font-family="-apple-system, BlinkMacSystemFont, 'Segoe UI', Helvetica, Arial, sans-serif">9</text>
    

      <line x1="50" y1="125" x2="820" y2="125" stroke="#30363d" stroke-dasharray="3,3" stroke-width="1" />
      <text x="40" y="129" fill="#8b949e" font-size="11" text-anchor="end" font-family="-apple-system, BlinkMacSystemFont, 'Segoe UI', Helvetica, Arial, sans-serif">19</text>
    

      <line x1="50" y1="87.5" x2="820" y2="87.5" stroke="#30363d" stroke-dasharray="3,3" stroke-width="1" />
      <text x="40" y="91.5" fill="#8b949e" font-size="11" text-anchor="end" font-family="-apple-system, BlinkMacSystemFont, 'Segoe UI', Helvetica, Arial, sans-serif">28</text>
    

      <line x1="50" y1="50" x2="820" y2="50" stroke="#30363d" stroke-dasharray="3,3" stroke-width="1" />
      <text x="40" y="54" fill="#8b949e" font-size="11" text-anchor="end" font-family="-apple-system, BlinkMacSystemFont, 'Segoe UI', Helvetica, Arial, sans-serif">37</text>
    

  <!-- Area Fill -->
  <path d="M 50 139.1891891891892 C 56.525423728813564 139.1891891891892, 56.525423728813564 135.13513513513513, 63.05084745762712 135.13513513513513 C 69.57627118644068 135.13513513513513, 69.57627118644068 163.51351351351352, 76.10169491525424 163.51351351351352 C 82.62711864406779 163.51351351351352, 82.62711864406779 200, 89.15254237288136 200 C 95.67796610169492 200, 95.67796610169492 200, 102.20338983050848 200 C 108.72881355932203 200, 108.72881355932203 187.83783783783784, 115.25423728813558 187.83783783783784 C 121.77966101694915 187.83783783783784, 121.77966101694915 159.45945945945945, 128.3050847457627 159.45945945945945 C 134.83050847457628 159.45945945945945, 134.83050847457628 200, 141.35593220338984 200 C 147.8813559322034 200, 147.8813559322034 183.78378378378378, 154.40677966101697 183.78378378378378 C 160.93220338983053 183.78378378378378, 160.93220338983053 135.13513513513513, 167.45762711864407 135.13513513513513 C 173.9830508474576 135.13513513513513, 173.9830508474576 106.75675675675676, 180.50847457627117 106.75675675675676 C 187.03389830508473 106.75675675675676, 187.03389830508473 200, 193.5593220338983 200 C 200.08474576271186 200, 200.08474576271186 175.67567567567568, 206.61016949152543 175.67567567567568 C 213.135593220339 175.67567567567568, 213.135593220339 200, 219.66101694915253 200 C 226.1864406779661 200, 226.1864406779661 200, 232.71186440677965 200 C 239.23728813559322 200, 239.23728813559322 163.51351351351352, 245.76271186440678 163.51351351351352 C 252.28813559322037 163.51351351351352, 252.28813559322037 200, 258.81355932203394 200 C 265.33898305084745 200, 265.33898305084745 200, 271.864406779661 200 C 278.3898305084746 200, 278.3898305084746 200, 284.91525423728814 200 C 291.4406779661017 200, 291.4406779661017 171.6216216216216, 297.9661016949152 171.6216216216216 C 304.4915254237288 171.6216216216216, 304.4915254237288 200, 311.01694915254234 200 C 317.5423728813559 200, 317.5423728813559 200, 324.06779661016947 200 C 330.59322033898303 200, 330.59322033898303 102.7027027027027, 337.1186440677966 102.7027027027027 C 343.64406779661016 102.7027027027027, 343.64406779661016 50, 350.1694915254237 50 C 356.6949152542373 50, 356.6949152542373 195.94594594594594, 363.22033898305085 195.94594594594594 C 369.7457627118644 195.94594594594594, 369.7457627118644 191.8918918918919, 376.271186440678 191.8918918918919 C 382.7966101694915 191.8918918918919, 382.7966101694915 200, 389.32203389830505 200 C 395.8474576271186 200, 395.8474576271186 183.78378378378378, 402.3728813559322 183.78378378378378 C 408.89830508474574 183.78378378378378, 408.89830508474574 187.83783783783784, 415.4237288135593 187.83783783783784 C 421.9491525423729 187.83783783783784, 421.9491525423729 200, 428.47457627118644 200 C 435 200, 435 167.56756756756755, 441.52542372881356 167.56756756756755 C 448.0508474576271 167.56756756756755, 448.0508474576271 175.67567567567568, 454.5762711864407 175.67567567567568 C 461.10169491525426 175.67567567567568, 461.10169491525426 131.0810810810811, 467.6271186440678 131.0810810810811 C 474.1525423728814 131.0810810810811, 474.1525423728814 171.6216216216216, 480.6779661016949 171.6216216216216 C 487.20338983050846 171.6216216216216, 487.20338983050846 200, 493.728813559322 200 C 500.2542372881356 200, 500.2542372881356 163.51351351351352, 506.77966101694915 163.51351351351352 C 513.3050847457628 163.51351351351352, 513.3050847457628 191.8918918918919, 519.8305084745763 191.8918918918919 C 526.3559322033898 191.8918918918919, 526.3559322033898 191.8918918918919, 532.8813559322034 191.8918918918919 C 539.4067796610169 191.8918918918919, 539.4067796610169 200, 545.9322033898304 200 C 552.457627118644 200, 552.457627118644 200, 558.9830508474577 200 C 565.5084745762712 200, 565.5084745762712 200, 572.0338983050847 200 C 578.5593220338983 200, 578.5593220338983 195.94594594594594, 585.0847457627119 195.94594594594594 C 591.6101694915254 195.94594594594594, 591.6101694915254 187.83783783783784, 598.1355932203389 187.83783783783784 C 604.6610169491526 187.83783783783784, 604.6610169491526 191.8918918918919, 611.1864406779661 191.8918918918919 C 617.7118644067796 191.8918918918919, 617.7118644067796 183.78378378378378, 624.2372881355932 183.78378378378378 C 630.7627118644068 183.78378378378378, 630.7627118644068 195.94594594594594, 637.2881355932203 195.94594594594594 C 643.8135593220338 195.94594594594594, 643.8135593220338 183.78378378378378, 650.3389830508474 183.78378378378378 C 656.8644067796611 183.78378378378378, 656.8644067796611 179.72972972972974, 663.3898305084746 179.72972972972974 C 669.9152542372881 179.72972972972974, 669.9152542372881 200, 676.4406779661017 200 C 682.9661016949153 200, 682.9661016949153 183.78378378378378, 689.4915254237288 183.78378378378378 C 696.0169491525423 183.78378378378378, 696.0169491525423 54.054054054054035, 702.542372881356 54.054054054054035 C 709.0677966101696 54.054054054054035, 709.0677966101696 118.91891891891892, 715.5932203389831 118.91891891891892 C 722.1186440677966 118.91891891891892, 722.1186440677966 175.67567567567568, 728.6440677966101 175.67567567567568 C 735.1694915254237 175.67567567567568, 735.1694915254237 187.83783783783784, 741.6949152542373 187.83783783783784 C 748.2203389830509 187.83783783783784, 748.2203389830509 200, 754.7457627118644 200 C 761.2711864406779 200, 761.2711864406779 200, 767.7966101694915 200 C 774.3220338983051 200, 774.3220338983051 191.8918918918919, 780.8474576271186 191.8918918918919 C 787.3728813559321 191.8918918918919, 787.3728813559321 139.1891891891892, 793.8983050847457 139.1891891891892 C 800.4237288135594 139.1891891891892, 800.4237288135594 102.7027027027027, 806.9491525423729 102.7027027027027 C 813.4745762711864 102.7027027027027, 813.4745762711864 200, 820 200 L 820 200 L 50 200 Z" fill="url(#areaGradient)" />

  <!-- Smooth Line -->
  <path d="M 50 139.1891891891892 C 56.525423728813564 139.1891891891892, 56.525423728813564 135.13513513513513, 63.05084745762712 135.13513513513513 C 69.57627118644068 135.13513513513513, 69.57627118644068 163.51351351351352, 76.10169491525424 163.51351351351352 C 82.62711864406779 163.51351351351352, 82.62711864406779 200, 89.15254237288136 200 C 95.67796610169492 200, 95.67796610169492 200, 102.20338983050848 200 C 108.72881355932203 200, 108.72881355932203 187.83783783783784, 115.25423728813558 187.83783783783784 C 121.77966101694915 187.83783783783784, 121.77966101694915 159.45945945945945, 128.3050847457627 159.45945945945945 C 134.83050847457628 159.45945945945945, 134.83050847457628 200, 141.35593220338984 200 C 147.8813559322034 200, 147.8813559322034 183.78378378378378, 154.40677966101697 183.78378378378378 C 160.93220338983053 183.78378378378378, 160.93220338983053 135.13513513513513, 167.45762711864407 135.13513513513513 C 173.9830508474576 135.13513513513513, 173.9830508474576 106.75675675675676, 180.50847457627117 106.75675675675676 C 187.03389830508473 106.75675675675676, 187.03389830508473 200, 193.5593220338983 200 C 200.08474576271186 200, 200.08474576271186 175.67567567567568, 206.61016949152543 175.67567567567568 C 213.135593220339 175.67567567567568, 213.135593220339 200, 219.66101694915253 200 C 226.1864406779661 200, 226.1864406779661 200, 232.71186440677965 200 C 239.23728813559322 200, 239.23728813559322 163.51351351351352, 245.76271186440678 163.51351351351352 C 252.28813559322037 163.51351351351352, 252.28813559322037 200, 258.81355932203394 200 C 265.33898305084745 200, 265.33898305084745 200, 271.864406779661 200 C 278.3898305084746 200, 278.3898305084746 200, 284.91525423728814 200 C 291.4406779661017 200, 291.4406779661017 171.6216216216216, 297.9661016949152 171.6216216216216 C 304.4915254237288 171.6216216216216, 304.4915254237288 200, 311.01694915254234 200 C 317.5423728813559 200, 317.5423728813559 200, 324.06779661016947 200 C 330.59322033898303 200, 330.59322033898303 102.7027027027027, 337.1186440677966 102.7027027027027 C 343.64406779661016 102.7027027027027, 343.64406779661016 50, 350.1694915254237 50 C 356.6949152542373 50, 356.6949152542373 195.94594594594594, 363.22033898305085 195.94594594594594 C 369.7457627118644 195.94594594594594, 369.7457627118644 191.8918918918919, 376.271186440678 191.8918918918919 C 382.7966101694915 191.8918918918919, 382.7966101694915 200, 389.32203389830505 200 C 395.8474576271186 200, 395.8474576271186 183.78378378378378, 402.3728813559322 183.78378378378378 C 408.89830508474574 183.78378378378378, 408.89830508474574 187.83783783783784, 415.4237288135593 187.83783783783784 C 421.9491525423729 187.83783783783784, 421.9491525423729 200, 428.47457627118644 200 C 435 200, 435 167.56756756756755, 441.52542372881356 167.56756756756755 C 448.0508474576271 167.56756756756755, 448.0508474576271 175.67567567567568, 454.5762711864407 175.67567567567568 C 461.10169491525426 175.67567567567568, 461.10169491525426 131.0810810810811, 467.6271186440678 131.0810810810811 C 474.1525423728814 131.0810810810811, 474.1525423728814 171.6216216216216, 480.6779661016949 171.6216216216216 C 487.20338983050846 171.6216216216216, 487.20338983050846 200, 493.728813559322 200 C 500.2542372881356 200, 500.2542372881356 163.51351351351352, 506.77966101694915 163.51351351351352 C 513.3050847457628 163.51351351351352, 513.3050847457628 191.8918918918919, 519.8305084745763 191.8918918918919 C 526.3559322033898 191.8918918918919, 526.3559322033898 191.8918918918919, 532.8813559322034 191.8918918918919 C 539.4067796610169 191.8918918918919, 539.4067796610169 200, 545.9322033898304 200 C 552.457627118644 200, 552.457627118644 200, 558.9830508474577 200 C 565.5084745762712 200, 565.5084745762712 200, 572.0338983050847 200 C 578.5593220338983 200, 578.5593220338983 195.94594594594594, 585.0847457627119 195.94594594594594 C 591.6101694915254 195.94594594594594, 591.6101694915254 187.83783783783784, 598.1355932203389 187.83783783783784 C 604.6610169491526 187.83783783783784, 604.6610169491526 191.8918918918919, 611.1864406779661 191.8918918918919 C 617.7118644067796 191.8918918918919, 617.7118644067796 183.78378378378378, 624.2372881355932 183.78378378378378 C 630.7627118644068 183.78378378378378, 630.7627118644068 195.94594594594594, 637.2881355932203 195.94594594594594 C 643.8135593220338 195.94594594594594, 643.8135593220338 183.78378378378378, 650.3389830508474 183.78378378378378 C 656.8644067796611 183.78378378378378, 656.8644067796611 179.72972972972974, 663.3898305084746 179.72972972972974 C 669.9152542372881 179.72972972972974, 669.9152542372881 200, 676.4406779661017 200 C 682.9661016949153 200, 682.9661016949153 183.78378378378378, 689.4915254237288 183.78378378378378 C 696.0169491525423 183.78378378378378, 696.0169491525423 54.054054054054035, 702.542372881356 54.054054054054035 C 709.0677966101696 54.054054054054035, 709.0677966101696 118.91891891891892, 715.5932203389831 118.91891891891892 C 722.1186440677966 118.91891891891892, 722.1186440677966 175.67567567567568, 728.6440677966101 175.67567567567568 C 735.1694915254237 175.67567567567568, 735.1694915254237 187.83783783783784, 741.6949152542373 187.83783783783784 C 748.2203389830509 187.83783783783784, 748.2203389830509 200, 754.7457627118644 200 C 761.2711864406779 200, 761.2711864406779 200, 767.7966101694915 200 C 774.3220338983051 200, 774.3220338983051 191.8918918918919, 780.8474576271186 191.8918918918919 C 787.3728813559321 191.8918918918919, 787.3728813559321 139.1891891891892, 793.8983050847457 139.1891891891892 C 800.4237288135594 139.1891891891892, 800.4237288135594 102.7027027027027, 806.9491525423729 102.7027027027027 C 813.4745762711864 102.7027027027027, 813.4745762711864 200, 820 200" fill="none" stroke="url(#lineGradient)" stroke-width="2.5" stroke-linecap="round" />

  <!-- Contribution Points -->
  
        <circle cx="50" cy="139.1891891891892" r="3" fill="#58a6ff" stroke="#0d1117" stroke-width="1.5" />
      

        <circle cx="63.05084745762712" cy="135.13513513513513" r="3" fill="#58a6ff" stroke="#0d1117" stroke-width="1.5" />
      

        <circle cx="76.10169491525424" cy="163.51351351351352" r="3" fill="#58a6ff" stroke="#0d1117" stroke-width="1.5" />
      

        <circle cx="115.25423728813558" cy="187.83783783783784" r="3" fill="#58a6ff" stroke="#0d1117" stroke-width="1.5" />
      

        <circle cx="128.3050847457627" cy="159.45945945945945" r="3" fill="#58a6ff" stroke="#0d1117" stroke-width="1.5" />
      

        <circle cx="154.40677966101697" cy="183.78378378378378" r="3" fill="#58a6ff" stroke="#0d1117" stroke-width="1.5" />
      

        <circle cx="167.45762711864407" cy="135.13513513513513" r="3" fill="#58a6ff" stroke="#0d1117" stroke-width="1.5" />
      

        <circle cx="180.50847457627117" cy="106.75675675675676" r="3" fill="#58a6ff" stroke="#0d1117" stroke-width="1.5" />
      

        <circle cx="206.61016949152543" cy="175.67567567567568" r="3" fill="#58a6ff" stroke="#0d1117" stroke-width="1.5" />
      

        <circle cx="245.76271186440678" cy="163.51351351351352" r="3" fill="#58a6ff" stroke="#0d1117" stroke-width="1.5" />
      

        <circle cx="297.9661016949152" cy="171.6216216216216" r="3" fill="#58a6ff" stroke="#0d1117" stroke-width="1.5" />
      

        <circle cx="337.1186440677966" cy="102.7027027027027" r="3" fill="#58a6ff" stroke="#0d1117" stroke-width="1.5" />
      

        <circle cx="350.1694915254237" cy="50" r="3" fill="#58a6ff" stroke="#0d1117" stroke-width="1.5" />
      

        <circle cx="363.22033898305085" cy="195.94594594594594" r="3" fill="#58a6ff" stroke="#0d1117" stroke-width="1.5" />
      

        <circle cx="376.271186440678" cy="191.8918918918919" r="3" fill="#58a6ff" stroke="#0d1117" stroke-width="1.5" />
      

        <circle cx="402.3728813559322" cy="183.78378378378378" r="3" fill="#58a6ff" stroke="#0d1117" stroke-width="1.5" />
      

        <circle cx="415.4237288135593" cy="187.83783783783784" r="3" fill="#58a6ff" stroke="#0d1117" stroke-width="1.5" />
      

        <circle cx="441.52542372881356" cy="167.56756756756755" r="3" fill="#58a6ff" stroke="#0d1117" stroke-width="1.5" />
      

        <circle cx="454.5762711864407" cy="175.67567567567568" r="3" fill="#58a6ff" stroke="#0d1117" stroke-width="1.5" />
      

        <circle cx="467.6271186440678" cy="131.0810810810811" r="3" fill="#58a6ff" stroke="#0d1117" stroke-width="1.5" />
      

        <circle cx="480.6779661016949" cy="171.6216216216216" r="3" fill="#58a6ff" stroke="#0d1117" stroke-width="1.5" />
      

        <circle cx="506.77966101694915" cy="163.51351351351352" r="3" fill="#58a6ff" stroke="#0d1117" stroke-width="1.5" />
      

        <circle cx="519.8305084745763" cy="191.8918918918919" r="3" fill="#58a6ff" stroke="#0d1117" stroke-width="1.5" />
      

        <circle cx="532.8813559322034" cy="191.8918918918919" r="3" fill="#58a6ff" stroke="#0d1117" stroke-width="1.5" />
      

        <circle cx="585.0847457627119" cy="195.94594594594594" r="3" fill="#58a6ff" stroke="#0d1117" stroke-width="1.5" />
      

        <circle cx="598.1355932203389" cy="187.83783783783784" r="3" fill="#58a6ff" stroke="#0d1117" stroke-width="1.5" />
      

        <circle cx="611.1864406779661" cy="191.8918918918919" r="3" fill="#58a6ff" stroke="#0d1117" stroke-width="1.5" />
      

        <circle cx="624.2372881355932" cy="183.78378378378378" r="3" fill="#58a6ff" stroke="#0d1117" stroke-width="1.5" />
      

        <circle cx="637.2881355932203" cy="195.94594594594594" r="3" fill="#58a6ff" stroke="#0d1117" stroke-width="1.5" />
      

        <circle cx="650.3389830508474" cy="183.78378378378378" r="3" fill="#58a6ff" stroke="#0d1117" stroke-width="1.5" />
      

        <circle cx="663.3898305084746" cy="179.72972972972974" r="3" fill="#58a6ff" stroke="#0d1117" stroke-width="1.5" />
      

        <circle cx="689.4915254237288" cy="183.78378378378378" r="3" fill="#58a6ff" stroke="#0d1117" stroke-width="1.5" />
      

        <circle cx="702.542372881356" cy="54.054054054054035" r="3" fill="#58a6ff" stroke="#0d1117" stroke-width="1.5" />
      

        <circle cx="715.5932203389831" cy="118.91891891891892" r="3" fill="#58a6ff" stroke="#0d1117" stroke-width="1.5" />
      

        <circle cx="728.6440677966101" cy="175.67567567567568" r="3" fill="#58a6ff" stroke="#0d1117" stroke-width="1.5" />
      

        <circle cx="741.6949152542373" cy="187.83783783783784" r="3" fill="#58a6ff" stroke="#0d1117" stroke-width="1.5" />
      

        <circle cx="780.8474576271186" cy="191.8918918918919" r="3" fill="#58a6ff" stroke="#0d1117" stroke-width="1.5" />
      

        <circle cx="793.8983050847457" cy="139.1891891891892" r="3" fill="#58a6ff" stroke="#0d1117" stroke-width="1.5" />
      

        <circle cx="806.9491525423729" cy="102.7027027027027" r="3" fill="#58a6ff" stroke="#0d1117" stroke-width="1.5" />
      

  <!-- Dates -->
  <text x="50" y="225" fill="#8b949e" font-size="11" text-anchor="middle" font-family="-apple-system, BlinkMacSystemFont, 'Segoe UI', Helvetica, Arial, sans-serif">Jul 1</text>
<text x="245.76271186440678" y="225" fill="#8b949e" font-size="11" text-anchor="middle" font-family="-apple-system, BlinkMacSystemFont, 'Segoe UI', Helvetica, Arial, sans-serif">Jul 16</text>
<text x="441.52542372881356" y="225" fill="#8b949e" font-size="11" text-anchor="middle" font-family="-apple-system, BlinkMacSystemFont, 'Segoe UI', Helvetica, Arial, sans-serif">Jul 31</text>
<text x="637.2881355932203" y="225" fill="#8b949e" font-size="11" text-anchor="middle" font-family="-apple-system, BlinkMacSystemFont, 'Segoe UI', Helvetica, Arial, sans-serif">Aug 15</text>
<text x="820" y="225" fill="#8b949e" font-size="11" text-anchor="middle" font-family="-apple-system, BlinkMacSystemFont, 'Segoe UI', Helvetica, Arial, sans-serif">Aug 29</text>
</svg>